<mxfile host="app.diagrams.net" modified="2023-12-04T15:36:59.519Z" agent="Mozilla/5.0 (Windows NT 10.0; Win64; x64) AppleWebKit/537.36 (KHTML, like Gecko) Chrome/119.0.0.0 Safari/537.36" version="21.6.6" etag="GZG99Xi_q2gBc9ZWIZ0V" type="github">
  <diagram name="第 1 页" id="kxl3q1LVBGbVR0zKe9RK">
    <mxGraphModel>
      <root>
        <mxCell id="0" />
        <mxCell id="1" parent="0" />
      </root>
    </mxGraphModel>
  </diagram>
</mxfile>
